<svg width="24" height="24" viewBox="0 0 24 24" fill="none" xmlns="http://www.w3.org/2000/svg">
<path d="M11.6464 12.7067L5.42706 18.927C5.42705 18.927 5.42704 18.927 5.42703 18.927C5.38008 18.974 5.31639 19.0003 5.24999 19.0003C5.18357 19.0003 5.11988 18.974 5.07292 18.927C5.02596 18.88 4.99957 18.8163 4.99957 18.7499C4.99957 18.6835 5.02595 18.6198 5.07289 18.5729C5.0729 18.5729 5.07291 18.5729 5.07292 18.5729L11.2932 12.3535L11.6468 11.9999L11.2932 11.6463L5.07292 5.427C5.07291 5.42699 5.0729 5.42698 5.07289 5.42697C5.02595 5.38001 4.99957 5.31633 4.99957 5.24993C4.99957 5.18351 5.02596 5.11982 5.07292 5.07286C5.11988 5.02589 5.18357 4.99951 5.24999 4.99951C5.31639 4.99951 5.38008 5.02588 5.42703 5.07283C5.42704 5.07284 5.42705 5.07285 5.42706 5.07286L11.6464 11.2931L12 11.6468L12.3536 11.2931L18.5729 5.07286C18.5729 5.07285 18.5729 5.07284 18.5729 5.07283C18.6199 5.02588 18.6836 4.99951 18.75 4.99951C18.8164 4.99951 18.8801 5.02589 18.9271 5.07286C18.974 5.11982 19.0004 5.18351 19.0004 5.24993C19.0004 5.31633 18.974 5.38001 18.9271 5.42697C18.9271 5.42698 18.9271 5.42699 18.9271 5.427L12.7068 11.6463L12.3531 11.9999L12.7068 12.3535L18.9271 18.5729C18.9271 18.5729 18.9271 18.5729 18.9271 18.5729C18.9503 18.5961 18.9688 18.6237 18.9813 18.6541C18.9939 18.6845 19.0004 18.717 19.0004 18.7499C19.0004 18.7828 18.9939 18.8154 18.9813 18.8458C18.9688 18.8761 18.9503 18.9038 18.9271 18.927C18.9038 18.9503 18.8762 18.9687 18.8458 18.9813C18.8154 18.9939 18.7829 19.0003 18.75 19.0003C18.7171 19.0003 18.6845 18.9939 18.6542 18.9813C18.6238 18.9687 18.5962 18.9503 18.5729 18.927C18.5729 18.927 18.5729 18.927 18.5729 18.927L12.3536 12.7067L12 12.3531L11.6464 12.7067Z" fill="#6C757D" stroke="#6C757D"/>
</svg>
